<?xml version="1.0" standalone="no"?>
<!DOCTYPE svg PUBLIC "-//W3C//DTD SVG 20010904//EN"
 "http://www.w3.org/TR/2001/REC-SVG-20010904/DTD/svg10.dtd">
<svg version="1.0" xmlns="http://www.w3.org/2000/svg"
 width="256.000000pt" height="256.000000pt" viewBox="0 0 256.000000 256.000000"
 preserveAspectRatio="xMidYMid meet">

<g transform="translate(0.000000,256.000000) scale(0.100000,-0.100000)"
fill="#000000" stroke="none">
<path d="M2153 2542 c-110 -39 -176 -108 -208 -216 -20 -68 -19 -111 7 -186
58 -173 253 -255 421 -177 76 35 112 70 149 145 43 88 45 178 6 262 -67 144
-237 221 -375 172z m157 -188 c81 -48 80 -178 -2 -220 -62 -32 -137 -15 -174
41 -21 32 -20 106 2 140 35 53 118 72 174 39z"/>
<path d="M765 2453 c-262 -15 -415 -72 -546 -202 -112 -113 -164 -223 -194
-416 -22 -136 -32 -786 -16 -1020 22 -329 64 -450 210 -596 192 -192 381 -227
1146 -216 476 8 582 22 738 104 45 24 98 64 143 108 106 105 159 211 190 380
21 108 33 1010 14 1054 -27 65 -134 67 -159 2 -6 -16 -12 -208 -14 -486 -4
-462 -8 -515 -45 -640 -26 -88 -106 -190 -189 -243 -131 -83 -256 -96 -898
-89 -394 4 -492 7 -549 21 -203 47 -336 179 -382 381 -22 93 -32 962 -14 1155
18 194 60 293 163 386 68 61 132 92 241 116 82 18 139 20 556 24 280 3 475 9
491 15 62 24 64 130 2 158 -22 10 -735 14 -888 4z"/>
<path d="M1804 1659 c-10 -11 -66 -116 -124 -232 -96 -194 -108 -214 -145
-235 -30 -17 -51 -22 -86 -19 -62 5 -99 34 -138 107 -45 84 -80 121 -143 153
-141 71 -297 50 -399 -55 -50 -52 -259 -463 -259 -510 0 -40 48 -88 89 -88 17
0 41 10 55 23 14 12 73 117 130 233 114 232 125 245 211 251 73 6 112 -19 155
-98 45 -82 98 -135 169 -168 47 -22 70 -26 141 -26 70 1 95 5 142 27 94 44
126 87 243 324 115 235 125 272 82 312 -31 30 -96 30 -123 1z"/>
</g>
</svg>
