<?xml version="1.0" standalone="no"?>
<!DOCTYPE svg PUBLIC "-//W3C//DTD SVG 20010904//EN"
 "http://www.w3.org/TR/2001/REC-SVG-20010904/DTD/svg10.dtd">
<svg version="1.0" xmlns="http://www.w3.org/2000/svg"
 width="500.000000pt" height="380.000000pt" viewBox="0 0 500.000000 380.000000"
 preserveAspectRatio="xMidYMid meet">

<g transform="translate(0.000000,380.000000) scale(0.100000,-0.100000)"
fill="#000000" stroke="none">
<path d="M1105 3771 c-48 -22 -79 -54 -100 -103 -13 -33 -15 -209 -15 -1563 0
-839 -2 -1525 -5 -1525 -2 0 -162 117 -355 259 -192 143 -366 265 -386 271
-46 15 -113 5 -156 -23 -97 -66 -114 -200 -35 -282 42 -44 989 -743 1046 -772
52 -27 97 -29 147 -8 20 8 208 142 418 297 608 450 654 486 672 521 10 18 18
57 18 89 1 47 -4 63 -29 99 -58 83 -153 110 -235 67 -25 -13 -195 -135 -378
-271 -183 -136 -335 -247 -337 -247 -3 0 -5 683 -5 1518 0 1013 -4 1529 -10
1554 -21 76 -102 138 -180 138 -19 0 -53 -9 -75 -19z"/>
<path d="M3739 3767 c-56 -29 -1015 -738 -1051 -777 -56 -61 -59 -157 -7 -229
54 -76 150 -100 229 -59 25 13 195 135 378 271 183 136 335 247 337 247 3 0 5
-683 5 -1517 0 -1014 4 -1530 10 -1555 21 -76 102 -138 180 -138 43 0 107 29
137 61 56 61 53 -33 53 1624 0 839 2 1525 5 1525 3 0 162 -117 355 -259 192
-143 366 -265 386 -271 70 -24 160 8 208 73 30 41 30 173 0 214 -26 34 -1013
768 -1069 794 -54 25 -102 24 -156 -4z"/>
</g>
</svg>
