<?xml version="1.0" standalone="no"?>
<!DOCTYPE svg PUBLIC "-//W3C//DTD SVG 20010904//EN"
 "http://www.w3.org/TR/2001/REC-SVG-20010904/DTD/svg10.dtd">
<svg version="1.0" xmlns="http://www.w3.org/2000/svg"
 width="512.000000pt" height="512.000000pt" viewBox="0 0 512.000000 512.000000"
 preserveAspectRatio="xMidYMid meet">

<g transform="translate(0.000000,512.000000) scale(0.100000,-0.100000)"
fill="#000000" stroke="none">
<path d="M1462 4995 c-316 -89 -574 -442 -685 -935 -18 -81 -21 -127 -21 -310
0 -201 2 -221 27 -315 68 -252 210 -446 412 -560 l60 -34 -38 -1225 c-43
-1367 -44 -1285 26 -1378 38 -50 112 -103 165 -118 48 -13 336 -13 384 0 53
15 127 68 165 118 70 93 69 11 26 1377 l-38 1226 61 34 c287 161 444 472 444
880 0 541 -290 1081 -656 1221 -87 34 -248 43 -332 19z m296 -237 c199 -97
381 -391 454 -731 29 -138 32 -395 5 -509 -25 -105 -60 -190 -114 -270 -71
-108 -131 -153 -322 -242 -57 -26 -56 41 -13 -1331 43 -1376 44 -1308 -17
-1339 -43 -23 -259 -23 -302 0 -61 31 -61 -39 -17 1339 35 1111 38 1263 25
1290 -15 31 -18 33 -127 83 -172 78 -290 236 -347 467 -26 107 -24 377 5 512
39 181 114 362 205 498 85 127 224 239 330 266 64 16 162 3 235 -33z"/>
<path d="M2920 4999 c-37 -15 -78 -58 -89 -93 -6 -17 -44 -280 -86 -585 -66
-489 -75 -572 -75 -708 0 -187 15 -263 75 -388 75 -156 181 -261 340 -341 l90
-45 -38 -1224 c-43 -1366 -44 -1284 26 -1377 38 -50 112 -103 165 -118 48 -13
336 -13 384 0 53 15 127 68 165 118 70 93 69 19 29 1305 -20 633 -37 1184 -38
1224 l-2 72 89 45 c155 78 263 184 336 331 62 126 79 211 79 395 0 140 -8 218
-75 711 -42 305 -78 563 -82 574 -10 36 -55 87 -89 101 -85 36 -178 3 -220
-77 -7 -15 -36 -192 -64 -395 -28 -202 -52 -369 -53 -371 -2 -1 -25 160 -51
360 -52 389 -62 429 -119 469 -46 33 -130 36 -181 6 -70 -41 -78 -70 -132
-475 -26 -200 -49 -361 -51 -360 -1 2 -25 169 -53 371 -28 203 -56 378 -62
390 -16 32 -50 66 -80 82 -31 16 -101 17 -138 3z m120 -885 c27 -203 54 -386
60 -406 18 -63 48 -78 156 -78 82 0 96 3 119 23 33 28 34 30 91 460 27 196 51
357 54 357 3 0 28 -161 54 -357 57 -428 58 -432 91 -460 23 -20 37 -23 119
-23 108 0 138 15 156 78 6 20 33 203 60 406 28 203 52 371 53 373 2 1 27 -172
55 -385 71 -522 70 -638 -9 -794 -35 -68 -111 -154 -179 -201 -25 -18 -88 -48
-140 -67 -150 -57 -139 112 -92 -1365 43 -1377 44 -1308 -17 -1339 -43 -23
-259 -23 -302 0 -61 31 -60 -38 -17 1339 47 1477 58 1308 -92 1365 -140 52
-226 119 -296 226 -57 89 -77 163 -82 311 -4 119 1 171 49 522 29 215 54 389
56 388 1 -2 25 -170 53 -373z"/>
</g>
</svg>
