<?xml version="1.0" standalone="no"?>
<!DOCTYPE svg PUBLIC "-//W3C//DTD SVG 20010904//EN"
 "http://www.w3.org/TR/2001/REC-SVG-20010904/DTD/svg10.dtd">
<svg version="1.0" xmlns="http://www.w3.org/2000/svg"
 width="512.000000pt" height="512.000000pt" viewBox="0 0 512.000000 512.000000"
 preserveAspectRatio="xMidYMid meet">

<g transform="translate(0.000000,512.000000) scale(0.100000,-0.100000)"
fill="#000000" stroke="none">
<path d="M2485 4620 c-57 -29 -78 -63 -84 -138 l-6 -64 -57 -18 c-325 -100
-466 -496 -277 -778 90 -136 187 -190 459 -257 102 -26 200 -56 218 -67 36
-22 76 -86 86 -136 16 -91 -55 -197 -146 -220 -60 -15 -176 -15 -236 0 -69 17
-126 79 -143 153 -24 107 -77 159 -164 159 -93 0 -155 -65 -155 -163 0 -195
172 -405 377 -460 l41 -11 4 -65 c3 -55 8 -69 33 -96 57 -60 120 -73 191 -39
55 27 76 60 89 139 l11 63 56 18 c328 101 465 495 274 784 -87 130 -182 183
-454 251 -144 35 -202 54 -231 75 -91 66 -104 200 -29 286 47 53 81 66 184 72
127 6 186 -9 240 -63 34 -35 44 -54 57 -110 18 -79 59 -129 119 -146 105 -28
198 47 198 159 0 189 -160 391 -358 452 l-56 18 -11 63 c-13 79 -34 112 -89
139 -53 25 -90 25 -141 0z"/>
<path d="M767 2069 c-106 -25 -201 -104 -251 -209 l-31 -65 0 -515 0 -515 31
-65 c39 -83 101 -145 184 -184 l65 -31 278 -3 c338 -4 362 1 481 92 31 24 41
27 55 18 9 -7 43 -26 75 -43 126 -66 84 -63 831 -67 458 -2 707 1 764 8 145
19 313 83 431 163 98 67 837 665 861 698 45 59 78 136 91 209 50 290 -212 556
-502 509 -87 -14 -110 -25 -364 -178 -120 -72 -219 -130 -220 -129 -1 2 -10
21 -20 43 -48 107 -154 202 -276 246 l-65 24 -680 0 c-674 0 -681 0 -750 -22
-38 -12 -97 -38 -130 -58 -37 -23 -65 -33 -72 -28 -157 111 -164 113 -487 112
-144 -1 -278 -5 -299 -10z m547 -325 c14 -14 16 -70 16 -464 0 -394 -2 -450
-16 -464 -13 -14 -50 -16 -246 -16 -201 0 -234 2 -250 17 -17 15 -18 43 -18
461 0 400 2 447 17 464 15 16 36 18 249 18 198 0 235 -2 248 -16z m1863 -10
c98 -73 98 -195 0 -268 -28 -20 -42 -21 -457 -26 -415 -5 -429 -6 -457 -26
-98 -73 -98 -195 0 -268 28 -20 40 -21 445 -24 446 -3 496 0 589 45 69 32 151
100 187 155 25 37 71 68 350 236 343 205 359 212 425 177 31 -15 61 -69 61
-107 0 -13 -8 -38 -17 -55 -27 -47 -789 -653 -878 -698 -146 -72 -121 -70
-890 -70 -688 0 -690 0 -730 22 -54 28 -119 100 -136 149 -11 29 -14 104 -14
304 0 299 3 317 68 387 40 44 78 69 127 84 14 4 312 7 662 6 629 -2 637 -2
665 -23z"/>
</g>
</svg>
