<?xml version="1.0" standalone="no"?>
<!DOCTYPE svg PUBLIC "-//W3C//DTD SVG 20010904//EN"
 "http://www.w3.org/TR/2001/REC-SVG-20010904/DTD/svg10.dtd">
<svg version="1.0" xmlns="http://www.w3.org/2000/svg"
 width="512.000000pt" height="512.000000pt" viewBox="0 0 512.000000 512.000000"
 preserveAspectRatio="xMidYMid meet">

<g transform="translate(0.000000,512.000000) scale(0.100000,-0.100000)"
fill="#000000" stroke="none">
<path d="M2420 4794 c-208 -27 -407 -101 -580 -217 -96 -64 -273 -241 -337
-337 -95 -142 -162 -301 -199 -470 -26 -117 -26 -410 0 -565 36 -222 112 -476
202 -679 25 -56 48 -106 50 -112 4 -8 -28 -13 -108 -16 -90 -3 -124 -9 -166
-27 -63 -28 -143 -112 -166 -173 -8 -24 -77 -378 -152 -787 -107 -585 -134
-754 -129 -790 15 -105 81 -197 178 -249 l52 -27 1495 0 1495 0 52 27 c97 52
163 144 178 249 5 36 -23 207 -129 790 -75 409 -144 763 -152 787 -23 61 -103
145 -166 173 -42 18 -76 24 -166 27 -80 3 -112 8 -108 16 205 459 287 805 272
1151 -14 345 -133 614 -380 861 -183 182 -374 288 -626 345 -83 19 -331 33
-410 23z m371 -343 c347 -91 610 -354 700 -700 62 -238 17 -614 -117 -980 -44
-118 -165 -370 -240 -499 -86 -146 -222 -343 -337 -487 -105 -132 -226 -270
-237 -270 -24 0 -304 346 -429 530 -277 409 -440 788 -507 1180 -24 141 -25
415 -1 509 96 381 389 659 770 732 100 19 299 12 398 -15z m-972 -2503 c159
-247 374 -519 561 -710 113 -115 137 -128 218 -114 88 16 473 467 703 824 l84
132 163 0 c93 0 162 -4 162 -9 0 -14 250 -1372 256 -1393 5 -17 -67 -18 -1406
-18 -1339 0 -1411 1 -1406 18 6 21 256 1379 256 1393 0 5 69 9 163 9 l162 0
84 -132z"/>
<path d="M2421 4145 c-177 -39 -347 -171 -429 -335 -127 -254 -82 -540 118
-740 251 -252 650 -252 900 -1 253 254 253 648 0 902 -155 155 -374 220 -589
174z m270 -334 c69 -33 112 -74 150 -143 31 -58 34 -70 34 -148 0 -78 -3 -90
-34 -148 -38 -70 -70 -100 -145 -140 -43 -22 -64 -26 -136 -26 -78 -1 -90 2
-148 33 -69 37 -109 80 -144 151 -32 66 -31 196 2 265 42 86 123 152 215 176
49 13 158 2 206 -20z"/>
</g>
</svg>
