<?xml version="1.0" standalone="no"?>
<!DOCTYPE svg PUBLIC "-//W3C//DTD SVG 20010904//EN"
 "http://www.w3.org/TR/2001/REC-SVG-20010904/DTD/svg10.dtd">
<svg version="1.0" xmlns="http://www.w3.org/2000/svg"
 width="512.000000pt" height="512.000000pt" viewBox="0 0 512.000000 512.000000"
 preserveAspectRatio="xMidYMid meet">

<g transform="translate(0.000000,512.000000) scale(0.100000,-0.100000)"
fill="#000000" stroke="none">
<path d="M2477 4460 c-137 -35 -246 -148 -276 -288 -7 -36 -11 -245 -11 -647
l0 -595 -595 0 c-402 0 -611 -4 -647 -11 -117 -25 -209 -99 -262 -209 -27 -57
-31 -75 -31 -150 1 -72 5 -95 29 -147 37 -82 120 -161 201 -194 l60 -24 623
-3 622 -3 0 -594 c0 -402 4 -611 11 -647 25 -115 104 -214 214 -265 51 -24 73
-28 145 -27 71 0 95 5 145 28 109 50 189 148 214 264 7 36 11 245 11 647 l0
595 595 0 c402 0 611 4 647 11 117 25 209 98 261 209 27 57 31 76 31 150 0 74
-4 93 -31 150 -52 111 -144 184 -261 209 -36 7 -245 11 -647 11 l-595 0 0 595
c0 402 -4 611 -11 647 -35 163 -173 283 -336 293 -37 2 -85 0 -106 -5z"/>
</g>
</svg>
