<?xml version="1.0" standalone="no"?>
<!DOCTYPE svg PUBLIC "-//W3C//DTD SVG 20010904//EN"
 "http://www.w3.org/TR/2001/REC-SVG-20010904/DTD/svg10.dtd">
<svg version="1.0" xmlns="http://www.w3.org/2000/svg"
 width="256.000000pt" height="256.000000pt" viewBox="0 0 256.000000 256.000000"
 preserveAspectRatio="xMidYMid meet">

<g transform="translate(0.000000,256.000000) scale(0.100000,-0.100000)"
fill="#000000" stroke="none">
<path d="M475 2396 c-58 -26 -109 -80 -139 -145 -21 -46 -21 -52 -21 -926 0
-874 0 -880 21 -926 49 -106 141 -169 246 -169 43 0 85 10 164 40 59 22 118
40 131 40 13 0 93 -33 176 -72 151 -72 153 -73 232 -72 78 0 83 2 226 72 80
40 158 72 172 72 15 0 74 -18 132 -40 79 -30 120 -40 163 -40 105 0 197 63
246 169 21 46 21 52 21 926 0 874 0 880 -21 926 -30 65 -81 119 -139 145 l-50
24 -755 0 -755 0 -50 -24z m1562 -146 c66 -40 63 9 63 -925 0 -934 3 -885 -63
-925 -45 -28 -62 -26 -184 21 -166 64 -191 62 -390 -34 -87 -42 -170 -77 -182
-77 -13 0 -95 35 -184 77 -200 96 -224 98 -390 34 -122 -47 -139 -49 -184 -21
-66 40 -63 -9 -63 925 0 934 -3 885 63 925 31 19 56 20 757 20 701 0 726 -1
757 -20z"/>
<path d="M731 1864 c-12 -15 -21 -37 -21 -49 0 -12 9 -34 21 -49 l20 -26 529
0 529 0 20 26 c27 34 27 64 0 98 l-20 26 -529 0 -529 0 -20 -26z"/>
<path d="M744 1452 c-16 -11 -34 -48 -34 -72 0 -11 11 -32 25 -45 l24 -25 521
0 521 0 24 25 c30 30 32 64 4 99 l-20 26 -527 0 c-290 0 -532 -4 -538 -8z"/>
<path d="M735 1015 c-16 -15 -25 -36 -25 -55 0 -19 9 -40 25 -55 l24 -25 271
0 271 0 24 25 c16 15 25 36 25 55 0 19 -9 40 -25 55 l-24 25 -271 0 -271 0
-24 -25z"/>
</g>
</svg>
