<?xml version="1.0" standalone="no"?>
<!DOCTYPE svg PUBLIC "-//W3C//DTD SVG 20010904//EN"
 "http://www.w3.org/TR/2001/REC-SVG-20010904/DTD/svg10.dtd">
<svg version="1.0" xmlns="http://www.w3.org/2000/svg"
 width="512.000000pt" height="512.000000pt" viewBox="0 0 512.000000 512.000000"
 preserveAspectRatio="xMidYMid meet">

<g transform="translate(0.000000,512.000000) scale(0.100000,-0.100000)"
fill="#000000" stroke="none">
<path d="M1115 4835 c-244 -54 -443 -210 -550 -430 -87 -180 -80 -12 -80
-1845 0 -1833 -7 -1666 80 -1845 98 -202 270 -346 495 -417 l75 -23 1425 0
1425 0 75 23 c227 72 398 216 495 417 87 180 80 12 80 1845 0 1833 7 1665 -80
1845 -96 199 -261 339 -490 416 l-70 24 -1410 2 c-1143 1 -1421 -1 -1470 -12z
m2866 -325 c162 -50 279 -176 324 -346 13 -51 15 -259 15 -1604 0 -1345 -2
-1553 -15 -1604 -45 -170 -162 -296 -324 -346 -61 -19 -100 -20 -1421 -20
-1321 0 -1360 1 -1421 20 -162 50 -279 176 -324 346 -13 51 -15 258 -15 1601
0 1104 3 1557 11 1595 36 166 163 306 327 359 54 17 129 18 1418 18 1326 1
1364 0 1425 -19z"/>
<path d="M1227 4096 c-49 -18 -64 -32 -89 -80 -37 -73 -13 -153 62 -203 l33
-23 687 0 687 0 33 23 c48 32 72 69 77 119 7 58 -23 118 -74 149 l-38 24 -670
2 c-543 2 -677 0 -708 -11z"/>
<path d="M1227 3456 c-49 -18 -64 -32 -89 -80 -37 -73 -13 -153 62 -203 33
-23 36 -23 400 -23 364 0 367 0 400 23 48 32 72 69 77 119 7 58 -23 118 -74
149 -38 24 -40 24 -388 26 -275 2 -358 0 -388 -11z"/>
<path d="M2507 3136 c-49 -18 -64 -32 -88 -77 -17 -35 -19 -61 -19 -294 l0
-255 -358 0 c-351 0 -359 0 -402 -22 -25 -13 -55 -38 -67 -57 l-23 -34 0 -478
0 -477 -109 -4 c-92 -2 -114 -6 -138 -24 -98 -73 -98 -195 0 -268 l28 -21
1229 0 1229 0 28 21 c98 73 98 195 0 268 -24 18 -46 22 -138 24 l-109 4 0 797
0 798 -23 34 c-12 19 -42 44 -67 57 -44 22 -47 22 -490 22 -346 -1 -453 -4
-483 -14z m743 -1001 l0 -695 -265 0 -265 0 0 695 0 695 265 0 265 0 0 -695z
m-850 -320 l0 -375 -265 0 -265 0 0 375 0 375 265 0 265 0 0 -375z"/>
</g>
</svg>
