<?xml version="1.0" standalone="no"?>
<!DOCTYPE svg PUBLIC "-//W3C//DTD SVG 20010904//EN"
 "http://www.w3.org/TR/2001/REC-SVG-20010904/DTD/svg10.dtd">
<svg version="1.0" xmlns="http://www.w3.org/2000/svg"
 width="200.000000pt" height="200.000000pt" viewBox="0 0 200.000000 200.000000"
 preserveAspectRatio="xMidYMid meet">

<g transform="translate(0.000000,200.000000) scale(0.100000,-0.100000)"
fill="#000000" stroke="none">
<path d="M402 1936 l-37 -34 -3 -140 -3 -140 -67 -63 c-37 -35 -109 -103 -160
-152 l-94 -89 4 -137 c3 -133 4 -139 33 -186 28 -45 94 -91 158 -109 16 -5 17
-32 17 -386 0 -418 1 -424 60 -455 44 -23 1336 -23 1380 0 54 28 55 30 60 449
l5 389 43 12 c61 19 106 57 136 117 24 48 26 62 26 180 l0 128 -97 93 c-54 51
-126 119 -160 151 l-62 58 -3 140 -3 140 -37 34 -38 34 -560 0 -560 0 -38 -34z
m1133 -176 l0 -105 -537 -3 -538 -2 0 103 c0 57 3 107 7 110 3 4 245 6 537 5
l531 -3 0 -105z m-987 -218 c-1 -4 -29 -49 -62 -100 l-59 -92 -106 0 -106 0
105 100 105 99 63 0 c35 1 62 -3 60 -7z m268 -9 c-3 -10 -13 -55 -22 -100
l-17 -83 -115 0 c-62 0 -112 4 -110 8 2 4 29 49 62 100 l59 92 74 0 c66 0 74
-2 69 -17z m278 -65 c10 -46 20 -91 22 -100 5 -16 -5 -18 -116 -18 -111 0
-121 2 -116 18 2 9 12 54 22 100 l17 82 77 0 77 0 17 -82z m295 -14 c33 -52
61 -97 61 -100 0 -2 -51 -4 -114 -4 l-113 0 -17 83 c-10 45 -20 90 -22 100 -5
15 3 17 69 17 l75 0 61 -96z m291 -4 l105 -100 -106 0 -106 0 -59 92 c-33 51
-60 96 -62 100 -2 4 25 8 60 7 l63 0 105 -99z m-1280 -285 c0 -98 -14 -136
-60 -160 -35 -18 -106 -19 -138 -1 -47 26 -62 64 -62 159 l0 87 130 0 130 0 0
-85z m370 10 c0 -130 -40 -185 -135 -185 -95 0 -135 55 -135 185 l0 75 135 0
135 0 0 -75z m360 -10 c0 -129 -35 -175 -130 -175 -95 0 -130 46 -130 175 l0
85 130 0 130 0 0 -85z m370 10 c0 -130 -40 -185 -135 -185 -95 0 -135 55 -135
185 l0 75 135 0 135 0 0 -75z m360 -12 c0 -95 -15 -133 -62 -159 -32 -18 -103
-17 -138 1 -46 24 -60 62 -60 160 l0 85 130 0 130 0 0 -87z m-1322 -257 c73
-37 203 -15 256 43 l19 21 31 -27 c45 -38 93 -55 156 -55 63 0 111 17 156 55
l31 27 19 -21 c72 -80 246 -80 317 -1 19 21 19 21 64 -14 24 -19 49 -34 54
-34 5 0 9 -102 9 -245 l0 -245 -185 0 -185 0 0 151 c0 84 -5 159 -10 170 -10
18 -24 19 -268 19 -187 0 -261 -3 -270 -12 -8 -8 -12 -60 -12 -170 l0 -158
-185 0 -185 0 0 243 0 242 35 19 c19 10 42 27 51 38 17 18 18 18 43 -6 14 -13
41 -31 59 -40z m642 -516 l0 -260 -180 0 -180 0 0 260 0 260 180 0 180 0 0
-260z m-460 -170 l0 -90 -185 0 -185 0 0 90 0 90 185 0 185 0 0 -90z m930 0
l0 -90 -185 0 -185 0 0 90 0 90 185 0 185 0 0 -90z"/>
</g>
</svg>
