<?xml version="1.0" standalone="no"?>
<!DOCTYPE svg PUBLIC "-//W3C//DTD SVG 20010904//EN"
 "http://www.w3.org/TR/2001/REC-SVG-20010904/DTD/svg10.dtd">
<svg version="1.0" xmlns="http://www.w3.org/2000/svg"
 width="512.000000pt" height="512.000000pt" viewBox="0 0 512.000000 512.000000"
 preserveAspectRatio="xMidYMid meet">

<g transform="translate(0.000000,512.000000) scale(0.100000,-0.100000)"
fill="#000000" stroke="none">
<path d="M1562 4360 c-316 -44 -572 -281 -636 -592 -68 -327 97 -666 395 -812
127 -62 199 -79 334 -80 132 0 216 19 331 75 182 89 322 254 386 454 29 89 35
271 14 371 -22 101 -91 242 -157 322 -156 189 -426 295 -667 262z m158 -321
c90 -14 160 -49 225 -110 93 -88 135 -185 135 -314 0 -268 -251 -469 -514
-411 -328 73 -446 478 -209 715 78 77 164 116 288 130 6 0 39 -4 75 -10z"/>
<path d="M3365 4359 c-187 -28 -361 -124 -474 -261 -64 -78 -134 -219 -155
-315 -20 -90 -20 -236 -1 -328 19 -89 89 -232 155 -313 94 -115 249 -213 395
-248 83 -21 256 -24 334 -6 139 32 259 98 364 200 115 113 179 230 211 384 91
442 -233 861 -689 891 -44 3 -107 1 -140 -4z m235 -336 c146 -48 256 -179 283
-339 47 -274 -203 -529 -476 -486 -142 22 -268 114 -329 241 -26 54 -33 82
-36 152 -7 142 32 243 131 336 116 110 275 145 427 96z"/>
<path d="M1510 2625 c-8 -2 -49 -9 -90 -15 -109 -18 -270 -73 -378 -130 -258
-136 -473 -359 -591 -611 -103 -220 -152 -489 -122 -664 36 -209 201 -384 411
-436 44 -11 223 -14 925 -14 966 0 914 -3 1047 67 110 58 214 184 254 304 26
81 27 312 1 434 -117 551 -549 964 -1102 1055 -77 13 -308 19 -355 10z m392
-343 c298 -80 546 -284 673 -555 76 -160 117 -405 85 -501 -16 -49 -62 -101
-114 -129 l-41 -22 -850 0 -850 0 -42 22 c-113 61 -143 164 -108 368 38 215
128 389 285 545 155 156 338 252 550 289 91 16 323 6 412 -17z"/>
<path d="M3250 2615 c-141 -23 -243 -60 -279 -100 -75 -85 -43 -210 64 -251
44 -16 47 -16 157 12 103 27 127 29 278 28 182 -1 248 -13 396 -75 219 -91
424 -293 525 -516 67 -147 106 -382 79 -476 -15 -57 -60 -111 -113 -140 -41
-22 -50 -22 -529 -27 -474 -5 -487 -6 -515 -26 -15 -11 -39 -36 -51 -55 -46
-66 -15 -175 61 -217 29 -15 76 -17 527 -17 483 0 497 1 565 22 190 60 342
233 376 428 31 182 -24 473 -132 687 -185 367 -514 622 -924 713 -99 22 -377
28 -485 10z"/>
</g>
</svg>
