<?xml version="1.0" standalone="no"?>
<!DOCTYPE svg PUBLIC "-//W3C//DTD SVG 20010904//EN"
 "http://www.w3.org/TR/2001/REC-SVG-20010904/DTD/svg10.dtd">
<svg version="1.0" xmlns="http://www.w3.org/2000/svg"
 width="750.000000pt" height="750.000000pt" viewBox="0 0 750.000000 750.000000"
 preserveAspectRatio="xMidYMid meet">

<g transform="translate(0.000000,750.000000) scale(0.100000,-0.100000)"
fill="#000000" stroke="none">
<path d="M3555 7464 c-22 -2 -96 -9 -165 -14 -616 -54 -1260 -294 -1787 -667
-328 -232 -654 -558 -886 -886 -373 -526 -601 -1138 -669 -1787 -16 -161 -16
-569 0 -730 76 -731 350 -1398 811 -1975 123 -155 403 -435 556 -557 578 -460
1224 -726 1970 -810 142 -16 598 -16 740 0 746 84 1392 350 1970 810 154 123
434 403 557 557 460 578 726 1224 810 1970 7 61 12 227 12 370 0 143 -5 310
-12 370 -84 746 -351 1394 -811 1970 -123 155 -403 435 -556 557 -575 457
-1243 733 -1960 808 -105 11 -511 21 -580 14z m450 -654 c805 -68 1549 -447
2074 -1055 1001 -1160 1001 -2860 0 -4020 -862 -1000 -2267 -1335 -3491 -834
-754 309 -1368 923 -1677 1677 -536 1309 -116 2799 1026 3645 588 435 1340
648 2068 587z"/>
<path d="M3791 5755 c-327 -74 -534 -394 -466 -720 68 -326 393 -539 719 -470
407 86 610 546 399 904 -74 125 -204 228 -343 272 -85 27 -225 33 -309 14z"/>
<path d="M3403 4155 c-102 -31 -208 -126 -257 -228 -27 -58 -332 -1403 -343
-1512 -15 -163 72 -327 214 -398 91 -46 125 -48 833 -45 652 3 666 3 711 24
108 50 169 143 177 268 9 145 -47 250 -165 308 l-68 33 -253 5 -254 5 -29 35
c-16 19 -29 46 -29 60 0 14 57 264 126 555 115 481 126 536 121 595 -8 90 -32
151 -79 205 -72 81 -93 88 -333 96 -286 10 -323 10 -372 -6z"/>
</g>
</svg>
