<?xml version="1.0" standalone="no"?>
<!DOCTYPE svg PUBLIC "-//W3C//DTD SVG 20010904//EN"
 "http://www.w3.org/TR/2001/REC-SVG-20010904/DTD/svg10.dtd">
<svg version="1.0" xmlns="http://www.w3.org/2000/svg"
 width="512.000000pt" height="512.000000pt" viewBox="0 0 512.000000 512.000000"
 preserveAspectRatio="xMidYMid meet">

<g transform="translate(0.000000,512.000000) scale(0.100000,-0.100000)"
fill="#000000" stroke="none">
<path d="M132 5109 c-47 -14 -109 -80 -123 -131 -23 -89 12 -182 88 -229 36
-23 50 -24 233 -29 211 -6 228 -10 282 -67 15 -15 31 -40 37 -56 6 -15 114
-607 241 -1315 127 -708 233 -1296 236 -1307 4 -16 -7 -26 -53 -50 -87 -44
-201 -162 -247 -255 -63 -129 -80 -259 -51 -395 40 -190 179 -356 363 -431 31
-13 56 -29 55 -36 -1 -7 -8 -44 -17 -83 -31 -137 -11 -281 56 -408 42 -81 164
-203 245 -245 133 -70 286 -88 427 -52 113 29 190 73 276 160 151 150 208 341
165 545 -8 38 -15 71 -15 72 0 2 284 3 630 3 347 0 630 -1 630 -3 0 -1 -7 -34
-15 -72 -29 -139 -9 -282 57 -408 42 -81 164 -203 245 -245 133 -70 286 -88
427 -52 113 29 190 73 277 160 164 162 219 392 147 606 l-24 71 26 38 c20 32
25 51 25 105 0 55 -4 73 -27 107 -15 22 -44 51 -65 64 l-38 24 -1666 5 -1665
5 -41 27 c-63 41 -88 90 -88 169 0 54 5 72 27 106 15 22 44 51 65 64 l38 24
1470 5 1470 5 65 22 c153 52 287 168 354 305 50 103 455 1635 463 1754 12 170
-50 329 -176 454 -87 87 -164 131 -277 160 -75 20 -117 20 -1815 20 l-1737 0
-6 28 c-3 15 -15 81 -27 147 -29 171 -46 231 -85 305 -69 131 -190 236 -334
287 -71 26 -86 27 -285 30 -119 1 -224 -2 -243 -8z m4491 -1218 c21 -13 49
-40 63 -61 52 -78 54 -62 -169 -911 -113 -427 -213 -793 -222 -813 -21 -45
-66 -80 -120 -95 -29 -9 -391 -11 -1344 -9 l-1305 3 -167 935 c-92 514 -170
945 -172 958 l-4 22 1701 -2 1701 -3 38 -24z m-2753 -3125 c59 -39 85 -89 85
-166 0 -78 -26 -127 -88 -168 -56 -37 -153 -39 -210 -3 -76 47 -111 140 -88
229 14 51 75 117 123 131 53 16 135 6 178 -23z m2400 0 c59 -39 85 -89 85
-166 0 -78 -26 -127 -88 -168 -56 -37 -153 -39 -210 -3 -76 47 -111 140 -88
229 14 51 75 117 123 131 53 16 135 6 178 -23z"/>
</g>
</svg>
