<?xml version="1.0" standalone="no"?>
<!DOCTYPE svg PUBLIC "-//W3C//DTD SVG 20010904//EN"
 "http://www.w3.org/TR/2001/REC-SVG-20010904/DTD/svg10.dtd">
<svg version="1.0" xmlns="http://www.w3.org/2000/svg"
 width="256.000000pt" height="256.000000pt" viewBox="0 0 256.000000 256.000000"
 preserveAspectRatio="xMidYMid meet">

<g transform="translate(0.000000,256.000000) scale(0.100000,-0.100000)"
fill="#000000" stroke="none">
<path d="M250 2537 c-43 -14 -182 -145 -218 -206 -36 -62 -36 -150 0 -212 15
-24 207 -224 427 -444 l401 -400 -409 -410 c-225 -225 -417 -426 -427 -445
-11 -22 -18 -58 -18 -96 0 -79 27 -126 131 -225 82 -78 124 -99 199 -99 85 1
109 21 537 448 l407 407 408 -407 c427 -427 451 -447 536 -448 75 0 117 21
199 99 104 99 131 146 131 225 0 38 -7 74 -18 96 -10 19 -202 220 -427 445
l-409 410 401 400 c220 220 412 420 427 444 20 35 26 57 26 106 0 80 -27 126
-131 226 -101 96 -163 117 -267 87 -35 -10 -104 -74 -458 -427 l-418 -415
-417 415 c-355 353 -424 417 -459 427 -50 14 -107 14 -154 -1z"/>
</g>
</svg>
