<?xml version="1.0" standalone="no"?>
<!DOCTYPE svg PUBLIC "-//W3C//DTD SVG 20010904//EN"
 "http://www.w3.org/TR/2001/REC-SVG-20010904/DTD/svg10.dtd">
<svg version="1.0" xmlns="http://www.w3.org/2000/svg"
 width="842.000000pt" height="1131.000000pt" viewBox="0 0 842.000000 1131.000000"
 preserveAspectRatio="xMidYMid meet">

<g transform="translate(0.000000,1131.000000) scale(0.100000,-0.100000)"
fill="#000000" stroke="none">
<path d="M3930 11290 c-258 -25 -518 -69 -749 -126 -154 -38 -418 -120 -438
-137 -7 -5 -13 -7 -13 -4 0 8 -217 -81 -342 -140 -55 -26 -95 -50 -91 -56 3
-6 1 -7 -5 -3 -16 10 -339 -172 -362 -204 -3 -3 -12 -9 -20 -12 -14 -5 -208
-146 -240 -174 -8 -7 -49 -42 -90 -76 -119 -99 -300 -279 -293 -291 3 -5 1 -7
-4 -4 -6 4 -17 -1 -24 -10 -12 -14 -12 -16 1 -9 8 4 1 -4 -17 -18 -52 -43
-205 -235 -197 -248 4 -6 3 -8 -3 -5 -6 4 -19 -6 -29 -21 -10 -15 -24 -34 -33
-42 -24 -24 -213 -316 -268 -415 -110 -197 -135 -247 -128 -263 3 -9 3 -13 -1
-9 -31 31 -242 -548 -280 -771 -2 -15 -13 -78 -24 -139 -29 -170 -43 -389 -36
-548 7 -143 29 -335 48 -415 5 -25 12 -61 15 -80 11 -78 95 -346 163 -520 94
-241 261 -633 272 -641 6 -3 9 -9 8 -13 -3 -16 25 -74 33 -69 6 3 7 1 4 -4 -9
-15 37 -116 47 -106 5 4 6 3 2 -4 -7 -12 12 -63 24 -63 4 0 7 -6 7 -13 0 -7
36 -88 81 -180 55 -114 85 -166 93 -161 8 4 9 3 5 -4 -4 -6 12 -49 35 -94 91
-178 401 -735 418 -748 3 -3 7 -10 8 -17 4 -17 83 -147 95 -154 5 -3 10 -10
10 -15 -1 -8 29 -61 71 -129 7 -10 30 -49 52 -85 21 -36 43 -66 47 -68 4 -2 8
-8 8 -14 0 -5 24 -49 54 -96 120 -195 173 -272 181 -265 4 5 5 3 2 -3 -7 -12
87 -166 104 -172 5 -2 7 -8 3 -13 -3 -5 2 -12 10 -15 9 -3 14 -10 11 -14 -2
-4 6 -19 20 -34 13 -14 22 -26 19 -26 -10 0 45 -72 65 -87 12 -8 19 -19 16
-24 -7 -10 136 -229 146 -224 3 2 6 -1 6 -8 0 -7 12 -31 28 -55 21 -32 31 -40
40 -32 10 8 15 7 21 -1 4 -7 3 -9 -4 -5 -6 3 -13 2 -17 -4 -5 -8 74 -132 95
-150 4 -3 10 -13 13 -24 5 -12 13 -16 23 -12 13 5 14 3 7 -6 -8 -10 5 -35 47
-95 32 -45 59 -81 61 -80 2 1 3 0 2 -2 -2 -2 12 -25 30 -50 18 -25 51 -71 72
-101 21 -30 42 -56 47 -58 4 -2 8 -10 8 -17 0 -7 3 -15 8 -17 4 -1 23 -26 42
-55 19 -28 38 -49 44 -46 5 3 6 1 3 -4 -6 -10 90 -156 117 -178 7 -5 15 -18
19 -28 4 -10 11 -15 17 -12 5 3 7 0 4 -9 -3 -9 5 -26 20 -41 14 -14 26 -29 26
-32 0 -7 98 -140 123 -168 10 -11 25 -33 33 -48 8 -15 19 -25 24 -22 5 3 12 0
16 -6 4 -8 3 -9 -4 -5 -21 13 -13 -5 26 -55 20 -27 54 -72 75 -100 22 -29 43
-47 49 -43 7 4 8 3 4 -5 -10 -16 33 -83 50 -77 8 3 11 0 8 -8 -5 -12 132 -208
162 -232 8 -6 14 -14 14 -18 0 -15 128 -175 134 -168 4 4 6 2 4 -5 -4 -15 152
-224 163 -217 5 3 6 -1 4 -8 -3 -8 10 -30 29 -51 18 -20 32 -37 29 -37 -3 0
10 -19 28 -42 18 -24 34 -45 36 -47 7 -10 60 52 153 180 55 76 100 140 100
143 0 3 9 15 20 26 12 12 18 25 15 31 -4 5 -2 8 3 7 8 -3 66 71 142 181 8 12
45 63 83 112 37 50 65 95 61 100 -3 5 -1 8 5 7 10 -3 261 335 261 352 0 5 4
10 8 10 13 0 73 87 70 101 -2 7 3 13 10 14 6 0 12 3 12 8 0 4 9 16 20 27 12
12 18 26 14 32 -4 6 -3 8 3 5 9 -5 103 111 103 127 0 4 9 16 20 28 33 36 310
426 310 437 0 6 4 11 10 11 13 0 41 56 32 65 -4 3 0 5 8 3 9 -2 14 4 14 14 -1
10 2 16 6 13 4 -3 20 14 36 38 16 23 37 51 46 61 10 10 15 23 12 28 -3 4 -1 8
5 8 10 0 71 85 71 100 0 4 3 10 8 12 11 5 82 104 82 116 0 5 7 13 16 16 9 4
14 9 11 12 -3 3 3 14 14 25 11 11 17 25 13 32 -4 7 -4 9 1 5 7 -7 55 52 55 67
0 4 7 13 15 22 24 23 95 131 95 142 0 6 5 11 10 11 6 0 10 6 10 14 0 8 4 16 9
18 16 6 391 579 391 597 0 6 4 11 8 11 10 0 45 60 35 60 -4 0 0 5 10 11 9 5
17 15 17 20 0 6 12 26 26 45 15 19 23 34 20 34 -4 0 2 10 14 22 11 12 20 28
20 35 0 7 5 13 11 13 5 0 7 5 4 10 -3 6 -2 10 3 10 7 0 20 20 40 64 3 5 -1 5
-8 1 -9 -5 -11 -4 -6 4 4 6 11 9 16 6 8 -5 101 138 104 161 1 5 10 22 21 35
11 14 29 43 40 65 11 21 25 42 30 46 7 5 7 8 0 8 -6 0 -6 3 0 8 21 14 66 102
59 114 -4 6 -3 8 3 5 9 -6 72 101 219 370 13 24 20 43 16 43 -4 0 -2 4 4 8 16
10 147 262 137 262 -4 0 -3 4 3 8 14 9 157 292 148 292 -4 0 1 9 10 19 10 11
15 25 11 30 -3 6 -2 11 3 11 21 0 278 582 266 603 -4 7 -3 9 1 4 7 -6 47 81
59 128 2 6 9 24 15 40 72 171 163 524 207 800 27 169 31 757 6 741 -4 -2 -8
22 -9 53 -3 106 -104 548 -122 536 -4 -2 -7 6 -6 17 2 31 -89 283 -106 294 -5
3 -7 9 -4 13 7 13 -189 396 -202 394 -7 -2 -10 3 -7 10 8 21 -196 330 -250
380 -10 9 -16 17 -12 17 11 0 -70 99 -118 144 -22 21 -34 35 -26 31 8 -4 1 8
-17 26 -17 19 -58 62 -89 96 -31 34 -61 60 -67 56 -6 -3 -7 -1 -4 4 8 13 -172
185 -185 177 -5 -3 -7 0 -6 7 2 7 -7 17 -18 24 -12 6 -34 25 -49 43 -15 18
-31 30 -36 26 -5 -3 -9 -1 -9 4 0 11 -127 109 -289 223 -41 29 -71 46 -66 38
5 -8 -3 -3 -17 11 -28 27 -198 130 -293 178 -228 114 -338 163 -351 158 -8 -3
-13 -2 -9 3 10 17 -415 169 -436 156 -5 -4 -9 -2 -9 4 0 21 -397 104 -655 137
-143 18 -628 27 -765 14z m530 -2071 c110 -13 261 -49 375 -89 81 -29 312
-135 325 -150 15 -17 64 -41 75 -36 10 3 12 0 8 -11 -5 -12 -2 -15 10 -10 9 3
19 1 23 -5 5 -7 2 -8 -7 -4 -8 4 -1 -3 16 -16 112 -87 161 -129 243 -210 50
-50 92 -95 92 -100 0 -5 6 -6 13 -2 6 4 9 4 5 0 -8 -10 111 -172 124 -168 5 1
7 -2 4 -7 -4 -6 12 -40 35 -78 113 -183 193 -409 235 -658 31 -191 19 -526
-26 -705 -5 -19 -11 -46 -14 -60 -2 -14 -16 -57 -29 -97 -14 -39 -23 -74 -19
-77 3 -3 0 -6 -6 -6 -7 0 -12 -6 -12 -12 0 -7 -27 -69 -61 -138 -33 -69 -60
-127 -59 -129 1 -2 -2 -7 -7 -10 -15 -10 -55 -71 -47 -71 4 0 -1 -7 -12 -15
-10 -8 -15 -15 -10 -15 6 0 3 -6 -5 -12 -20 -17 -89 -105 -89 -113 0 -3 -15
-21 -32 -38 -18 -18 -57 -58 -86 -90 -29 -31 -56 -57 -60 -57 -4 0 -33 -25
-65 -55 -32 -30 -60 -53 -62 -52 -2 1 -14 -7 -27 -18 -13 -11 -64 -46 -114
-77 -235 -145 -496 -235 -779 -268 -99 -12 -455 -11 -455 1 0 4 -24 9 -52 13
-82 11 -233 51 -343 91 -55 20 -106 37 -112 38 -7 0 -13 3 -13 7 0 3 -28 20
-62 36 -68 32 -183 104 -265 166 -29 22 -56 37 -61 34 -6 -3 -16 2 -23 12 -13
16 -12 16 6 3 11 -7 5 1 -14 17 -19 17 -39 28 -45 25 -6 -3 -8 -2 -3 2 4 5
-32 49 -80 100 -87 90 -161 172 -162 181 0 2 -24 39 -53 82 -29 42 -79 129
-112 192 -32 63 -63 114 -67 113 -5 -2 -6 4 -3 12 3 8 -7 52 -24 98 -62 172
-102 412 -102 616 0 355 114 729 310 1020 32 49 56 92 52 96 -4 5 -2 5 4 2 6
-3 28 17 50 46 21 28 51 62 67 75 15 13 24 29 20 35 -3 7 -3 9 1 6 4 -4 40 26
81 66 41 39 75 69 75 66 0 -2 12 7 28 20 15 14 46 39 69 56 24 16 39 34 35 38
-4 5 -2 5 4 2 11 -6 82 36 96 57 4 6 8 7 8 3 0 -5 13 0 29 9 17 10 27 22 24
27 -3 6 -1 7 4 4 6 -4 53 13 104 37 92 43 199 82 289 107 223 61 485 78 740
48z"/>
</g>
</svg>
